HIERARCHY
ROOT pelvis
{
	OFFSET 0.000000 0.000000 0.000000
	CHANNELS 6 Xposition Yposition Zposition Zrotation Xrotation Yrotation
	JOINT lfemur
	{
		OFFSET 11.446000 0.000000 0.000000
		CHANNELS 3 Zrotation Xrotation Yrotation
		JOINT ltibia
		{
			OFFSET 0.000000 -42.030400 0.000000
			CHANNELS 3 Zrotation Xrotation Yrotation
			JOINT lfoot
			{
				OFFSET 0.000000 -39.930200 0.000000
				CHANNELS 3 Zrotation Xrotation Yrotation
				JOINT ltoes
				{
					OFFSET 0.000000 0.000000 11.775800
					CHANNELS 3 Zrotation Xrotation Yrotation
					End Site
					{
					    OFFSET 0.000000 0.000000 5.000000
					}
				}
			}
		}
	}
	JOINT rfemur
	{
		OFFSET -11.446000 0.000000 0.000000
		CHANNELS 3 Zrotation Xrotation Yrotation
		JOINT rtibia
		{
			OFFSET 0.000000 -42.030400 0.000000
			CHANNELS 3 Zrotation Xrotation Yrotation
			JOINT rfoot
			{
				OFFSET 0.000000 -39.930200 0.000000
				CHANNELS 3 Zrotation Xrotation Yrotation
				JOINT rtoes
				{
					OFFSET 0.000000 0.000000 11.775800
					CHANNELS 3 Zrotation Xrotation Yrotation
					End Site
					{
					    OFFSET 0.000000 0.000000 5.000000
					}
				}
			}
		}
	}
	JOINT thorax
	{
		OFFSET 0.000000 11.255600 -5.000000
		CHANNELS 3 Zrotation Xrotation Yrotation
		JOINT head
		{
			OFFSET 0.000000 43.799300 0.000000
			CHANNELS 3 Zrotation Xrotation Yrotation
			End Site
			{
			    OFFSET 0.000000 5.000000 0.000000
			}
		}
		JOINT lclavicle
		{
			OFFSET 0.000000 39.863000 0.000000
			CHANNELS 3 Zrotation Xrotation Yrotation
			JOINT lhumerus
			{
				OFFSET 17.380600 4.958300 0.000000
				CHANNELS 3 Zrotation Xrotation Yrotation
				JOINT lradius
				{
					OFFSET 0.000000 -27.561300 0.000000
					CHANNELS 3 Zrotation Xrotation Yrotation
					JOINT lhand
					{
						OFFSET 0.000000 -26.933000 0.000000
						CHANNELS 3 Zrotation Xrotation Yrotation
						End Site
						{
						    OFFSET 0.000000 -5.000000 0.000000
						}
					}
				}
			}
		}
		JOINT rclavicle
		{
			OFFSET 0.000000 39.863000 0.000000
			CHANNELS 3 Zrotation Xrotation Yrotation
			JOINT rhumerus
			{
				OFFSET -17.380600 4.958300 0.000000
				CHANNELS 3 Zrotation Xrotation Yrotation
				JOINT rradius
				{
					OFFSET 0.000000 -27.561300 0.000000
					CHANNELS 3 Zrotation Xrotation Yrotation
					JOINT rhand
					{
						OFFSET 0.000000 -26.933000 0.000000
						CHANNELS 3 Zrotation Xrotation Yrotation
						End Site
						{
						    OFFSET 0.000000 -5.000000 0.000000
						}
					}
				}
			}
		}
	}
}
MOTION
Frames: 10
Frame Time:	0.0333333
38.403600 105.172500 5.060600 14.302427 -12.156257 -94.373630 -19.938563 -61.092000 -4.829064 180.000037 55.233957 -180.000037 0.000000 -6.088373 5.601779 -0.000000 -1.384563 0.000000 -8.222674 -20.495399 -2.327184 -0.000000 56.806203 -0.000000 0.000000 20.449898 3.995021 0.000000 -29.572403 -0.000000 -18.033013 19.456127 1.222747 9.268531 19.948476 6.475566 -14.678437 0.000000 10.954586 51.819494 40.122319 37.962593 -0.000000 -7.257892 -53.737433 5.215723 -6.227952 -0.000000 19.716318 -0.000000 -3.537638 -46.711444 37.490670 -21.016364 0.000000 -19.951824 33.127869 4.994996 -5.131651 0.000000 
32.009200 108.012700 5.255700 12.064061 -11.676540 -93.337450 -23.311168 -60.469930 -12.486786 -180.000037 60.200093 180.000037 0.000000 -6.651238 6.505297 -0.000000 -1.385323 -0.000000 -9.291458 -22.758076 -4.916596 -0.000000 62.592823 0.000000 -0.000000 12.290108 -0.679158 -0.000000 -29.558664 -0.000000 -16.767320 20.458932 0.719044 9.189551 26.293323 5.410118 -12.384887 -0.000000 10.307365 50.981753 41.744876 39.843347 -0.000000 -8.015256 -50.769535 4.346844 -6.659477 0.000000 20.509971 0.000000 -3.159433 -47.344423 40.163072 -28.836087 0.000000 -12.433532 40.696479 2.938346 -4.421065 0.000000 
26.048400 110.058000 5.405300 11.575865 -10.921954 -93.288498 -22.945211 -60.548303 -15.716839 180.000037 67.220443 -180.000037 0.000000 -6.947103 7.966736 0.000000 -1.356707 0.000000 -9.656110 -28.711502 -6.891393 0.000000 67.333002 -0.000000 -0.000000 10.597714 -1.440443 -0.000000 -29.549146 -0.000000 -15.308146 20.478049 0.446953 9.205109 29.447482 4.490718 -10.974500 0.000000 9.997216 50.197303 42.929975 39.095729 -0.000000 -9.143520 -50.096770 3.407186 -7.069563 0.000000 21.127539 -0.000000 -3.777740 -47.919839 42.342222 -27.702681 -0.000001 -11.557088 44.339051 6.703537 -5.691672 0.000000 
20.305100 111.016300 5.402900 11.564351 -9.834794 -94.698472 -17.953206 -60.541690 -13.460514 -180.000037 75.911621 180.000037 -0.000000 -6.648725 9.077750 0.000000 -1.347681 -0.000000 -8.178090 -35.429877 -6.745151 -0.000000 68.890962 -0.000000 -0.000000 10.926881 0.573491 0.000000 -29.550557 -0.000000 -13.963557 20.905511 0.028939 8.698279 29.946843 5.691721 -10.466667 0.000000 9.907703 49.222538 43.940466 41.636527 -0.000000 -8.956312 -55.413022 7.214463 -6.470530 0.000000 20.261480 0.000000 -4.130415 -47.001271 43.019262 -24.204743 0.000000 -13.380818 43.987056 6.453764 -5.615091 0.000000 
14.333500 110.910600 5.199300 10.834751 -8.337475 -95.753064 -11.214878 -58.582976 -8.755541 -180.000037 86.315012 -180.000037 -0.000000 -6.596964 10.018613 0.000000 -1.355902 -0.000000 -5.423896 -39.521512 -6.073175 -0.000000 65.596297 -0.000000 0.000000 9.955168 1.324483 -0.000000 -29.549884 0.000000 -12.651733 22.061275 -1.135988 8.600542 29.830973 7.885685 -9.455814 -0.000000 9.843281 48.849520 44.999173 43.767789 -0.000000 -8.039880 -56.409049 7.312714 -6.027269 0.000000 20.313617 0.000000 -3.836443 -47.021950 43.897288 -23.451651 0.000000 -14.983735 41.298943 5.548803 -5.315561 -0.000000 
8.086100 109.780700 4.992400 9.918867 -7.145968 -95.810302 -6.576398 -55.112768 -5.170570 -0.000000 81.487883 0.000000 -0.000000 -3.152080 10.888828 -0.000000 -1.331507 -0.000000 -3.747324 -41.247338 -6.772879 -0.000000 58.051627 0.000000 0.000000 10.013947 1.446788 0.000000 -29.551390 0.000000 -11.495300 23.039244 -2.639751 9.083931 29.714771 9.491247 -8.916650 -0.000000 9.181304 50.066394 46.012009 43.549200 -0.000000 -7.056857 -56.837934 7.488252 -5.788159 -0.000000 20.626643 0.000000 -4.052092 -47.709802 44.750641 -22.859464 0.000000 -14.818792 42.591347 5.842026 -5.413304 -0.000000 
1.600800 107.644400 4.987500 9.725146 -6.389479 -95.187380 -4.487315 -51.103420 -3.643066 -0.000000 67.170082 -0.000000 0.000000 2.707644 10.668545 0.000000 -1.387243 0.000000 -3.386621 -41.836610 -8.576919 0.000000 47.532386 -0.000000 -0.000000 14.959392 2.765424 -0.000000 -29.553214 -0.000000 -10.032370 23.022052 -4.244470 9.364723 29.296527 10.327273 -8.507333 0.000000 8.369087 50.566278 46.462756 44.770728 -0.000001 -7.862908 -58.777319 9.203827 -5.753159 0.000000 20.287278 -0.000000 -4.013066 -46.360368 47.170055 -24.691148 -0.000000 -15.282431 41.346524 5.440326 -5.276933 0.000000 
-5.129200 104.294200 4.917500 9.678166 -5.598743 -94.281217 -2.829031 -46.412859 -2.121232 0.000000 51.547595 -0.000000 0.000000 10.314576 7.246653 -0.000000 -1.508139 -0.000000 -2.569905 -40.916638 -8.301461 -0.000000 35.085863 -0.000000 0.000000 21.470248 5.554007 0.000000 -29.558623 0.000000 -8.244751 22.620253 -5.682938 9.642686 28.078520 10.811360 -8.047523 0.000000 8.626978 50.601707 45.931514 42.105751 0.000001 -10.367199 -55.781991 9.224664 -6.148672 0.000000 19.947137 0.000000 -4.402473 -44.503175 50.062571 -25.766913 -0.000000 -15.597025 39.692055 6.093182 -5.498721 0.000000 
-11.983800 99.626700 4.815200 9.576593 -5.222225 -93.625745 -1.755799 -42.016864 -0.011588 0.000000 36.183846 -0.000000 0.000000 23.468735 2.296845 -0.000000 -1.653940 -0.000000 -2.091426 -39.263812 -6.789071 -0.000000 22.247852 0.000000 0.000000 31.689718 7.810259 0.000000 -29.566218 -0.000000 -7.143589 21.687161 -6.758954 9.874841 26.603698 11.663220 -7.470911 -0.000000 9.216963 50.278432 44.908841 41.538514 -0.000001 -11.910093 -54.869187 10.301399 -6.305932 0.000000 19.852311 -0.000000 -4.683288 -42.151318 53.110461 -27.847023 0.000000 -15.458186 39.288179 6.104162 -5.504146 -0.000000 
-18.915500 93.843900 4.926100 9.032453 -5.599795 -93.073813 -1.770930 -39.050704 3.598211 -0.000000 25.026460 -0.000000 0.000000 33.164154 -4.471878 -0.000000 -1.790956 -0.000000 -3.206740 -38.184820 -5.956038 -0.000000 13.795119 -0.000000 0.000000 38.063223 10.897309 0.000000 -29.570699 -0.000000 -7.024994 21.532023 -7.555169 10.962913 23.949301 12.568628 -7.627605 -0.000000 10.045864 49.302540 44.168469 40.624821 0.000001 -15.729874 -53.734787 10.330307 -6.827202 -0.000000 20.244382 0.000000 -4.968828 -39.675021 55.122483 -29.158739 -0.000000 -14.452794 39.660879 6.005723 -5.467937 -0.000000 
